# xmcd CD database file
#
# Track frame offsets:
#	150
#	10968
#	22608
#	34265
#	46463
#	59059
#	71751
#	84460
#	97317
#	110345
#	123338
#	136501
#	149830
#	163242
#	176545
#	190331
#	204162
#	218034
#
# Disc length: 3093 seconds
#
# Revision: 0
# Processed by: cddbd v1.5.2PL0 Copyright (c) Steve Scherf et al.
# Submitted via: CDex 1.70beta2
#
DISCID=060c1312
DTITLE=Lionel Hampton - The Legends Of Jazz
DYEAR=1900
DGENRE=Jazz
TTITLE0=Jivin' The Vibes
TTITLE1=Don't Be That Way
TTITLE2=My Last Affair
TTITLE3=The Mood That I'm In
TTITLE4=Rock Hill Special
TTITLE5=I'm In The Mood For Swing
TTITLE6=China Stomp
TTITLE7=Everybody Loves My Baby
TTITLE8=Rhythm, Rhythm
TTITLE9=Baby Wan't You Please Come Home
TTITLE10=Whoa Babe
TTITLE11=Moonlight Blues
TTITLE12=I Know That You Know
TTITLE13=Piano Stomp
TTITLE14=Stompology
TTITLE15=After You've Gone
TTITLE16=You Came To My Rescue
TTITLE17=Judy
EXTD=
EXTT0=
EXTT1=
EXTT2=
EXTT3=
EXTT4=
EXTT5=
EXTT6=
EXTT7=
EXTT8=
EXTT9=
EXTT10=
EXTT11=
EXTT12=
EXTT13=
EXTT14=
EXTT15=
EXTT16=
EXTT17=
PLAYORDER=
